<svg id="visual" viewBox="0 0 1920 1080" width="1920" height="1080" xmlns="http://www.w3.org/2000/svg" xmlns:xlink="http://www.w3.org/1999/xlink" version="1.1"><rect x="0" y="0" width="1920" height="1080" fill="#c7c7c7"></rect><path d="M0 459L45.7 473.8C91.3 488.7 182.7 518.3 274.2 544.7C365.7 571 457.3 594 548.8 606.7C640.3 619.3 731.7 621.7 823 596.7C914.3 571.7 1005.7 519.3 1097 516.7C1188.3 514 1279.7 561 1371.2 575.7C1462.7 590.3 1554.3 572.7 1645.8 573.5C1737.3 574.3 1828.7 593.7 1874.3 603.3L1920 613L1920 1081L1874.3 1081C1828.7 1081 1737.3 1081 1645.8 1081C1554.3 1081 1462.7 1081 1371.2 1081C1279.7 1081 1188.3 1081 1097 1081C1005.7 1081 914.3 1081 823 1081C731.7 1081 640.3 1081 548.8 1081C457.3 1081 365.7 1081 274.2 1081C182.7 1081 91.3 1081 45.7 1081L0 1081Z" fill="#017880"></path><path d="M0 595L45.7 611.5C91.3 628 182.7 661 274.2 670.7C365.7 680.3 457.3 666.7 548.8 643.8C640.3 621 731.7 589 823 584.2C914.3 579.3 1005.7 601.7 1097 610C1188.3 618.3 1279.7 612.7 1371.2 606.7C1462.7 600.7 1554.3 594.3 1645.8 611.3C1737.3 628.3 1828.7 668.7 1874.3 688.8L1920 709L1920 1081L1874.3 1081C1828.7 1081 1737.3 1081 1645.8 1081C1554.3 1081 1462.7 1081 1371.2 1081C1279.7 1081 1188.3 1081 1097 1081C1005.7 1081 914.3 1081 823 1081C731.7 1081 640.3 1081 548.8 1081C457.3 1081 365.7 1081 274.2 1081C182.7 1081 91.3 1081 45.7 1081L0 1081Z" fill="#03858d"></path><path d="M0 796L45.7 774.7C91.3 753.3 182.7 710.7 274.2 689.8C365.7 669 457.3 670 548.8 679.5C640.3 689 731.7 707 823 704.7C914.3 702.3 1005.7 679.7 1097 684.5C1188.3 689.3 1279.7 721.7 1371.2 726.8C1462.7 732 1554.3 710 1645.8 697.3C1737.3 684.7 1828.7 681.3 1874.3 679.7L1920 678L1920 1081L1874.3 1081C1828.7 1081 1737.3 1081 1645.8 1081C1554.3 1081 1462.7 1081 1371.2 1081C1279.7 1081 1188.3 1081 1097 1081C1005.7 1081 914.3 1081 823 1081C731.7 1081 640.3 1081 548.8 1081C457.3 1081 365.7 1081 274.2 1081C182.7 1081 91.3 1081 45.7 1081L0 1081Z" fill="#06939a"></path><path d="M0 898L45.7 886.7C91.3 875.3 182.7 852.7 274.2 838C365.7 823.3 457.3 816.7 548.8 825.3C640.3 834 731.7 858 823 856.3C914.3 854.7 1005.7 827.3 1097 831.7C1188.3 836 1279.7 872 1371.2 876.8C1462.7 881.7 1554.3 855.3 1645.8 843.8C1737.3 832.3 1828.7 835.7 1874.3 837.3L1920 839L1920 1081L1874.3 1081C1828.7 1081 1737.3 1081 1645.8 1081C1554.3 1081 1462.7 1081 1371.2 1081C1279.7 1081 1188.3 1081 1097 1081C1005.7 1081 914.3 1081 823 1081C731.7 1081 640.3 1081 548.8 1081C457.3 1081 365.7 1081 274.2 1081C182.7 1081 91.3 1081 45.7 1081L0 1081Z" fill="#0ba1a7"></path><path d="M0 940L45.7 950.5C91.3 961 182.7 982 274.2 984.5C365.7 987 457.3 971 548.8 968.3C640.3 965.7 731.7 976.3 823 980.7C914.3 985 1005.7 983 1097 982.5C1188.3 982 1279.7 983 1371.2 975.2C1462.7 967.3 1554.3 950.7 1645.8 942.2C1737.3 933.7 1828.7 933.3 1874.3 933.2L1920 933L1920 1081L1874.3 1081C1828.7 1081 1737.3 1081 1645.8 1081C1554.3 1081 1462.7 1081 1371.2 1081C1279.7 1081 1188.3 1081 1097 1081C1005.7 1081 914.3 1081 823 1081C731.7 1081 640.3 1081 548.8 1081C457.3 1081 365.7 1081 274.2 1081C182.7 1081 91.3 1081 45.7 1081L0 1081Z" fill="#10afb5"></path></svg>